<svg width="640" height="640" viewBox="0 0 640 640" fill="none" xmlns="http://www.w3.org/2000/svg">
<g clip-path="url(#clip0_361_163)">
<path d="M495.8 443.7C500.6 449.1 504.5 456.3 507.5 465.3C511.1 474.3 512.9 482.1 512.9 488.7C512.9 501.9 506 514.8 492.2 527.4C478.4 540 459.8 550.5 436.4 558.9C413.6 567.3 388.7 571.5 361.7 571.5C317.9 571.5 279.2 561.6 245.6 541.8C212 522 185.9 493.5 167.3 456.3C148.7 419.1 139.4 375 139.4 324C139.4 271.8 149.3 226.5 169.1 188.1C189.5 149.7 217.4 120.3 252.8 99.9C288.8 79.5 329 69.3 373.4 69.3C417.8 69.3 452.3 80.1 476.9 101.7C502.1 122.7 514.7 149.7 514.7 182.7C514.7 210.9 507.5 233.1 493.1 249.3C478.7 264.9 460.1 272.7 437.3 272.7C418.7 272.7 403.1 265.8 390.5 252C377.9 238.2 371.6 221.4 371.6 201.6C371.6 188.4 374 177.3 378.8 168.3C383.6 159.3 390.2 151.2 398.6 144C389 138.6 380.3 135.9 372.5 135.9C352.1 135.9 334.1 148.2 318.5 172.8C302.9 196.8 295.1 236.7 295.1 292.5C295.1 356.1 304.4 402 323 430.2C341.6 457.8 368.9 471.6 404.9 471.6C421.7 471.6 438.2 469.2 454.4 464.4C471.2 459.6 485 452.7 495.8 443.7Z" fill="url(#paint0_linear_361_163)"/>
<path d="M81 39C81 39 80.6291 85.4007 90.9934 105.422C98.9245 120.743 118 130 118 130C118 130 98.9245 139.257 90.9934 154.578C80.6291 174.599 81 221 81 221C81 221 81.3709 174.599 71.0066 154.578C63.0755 139.257 44 130 44 130C44 130 63.0755 120.743 71.0066 105.422C81.3709 85.4007 81 39 81 39Z" fill="url(#paint1_linear_361_163)"/>
<path d="M115.5 269C115.5 269 114.783 357.212 134.811 395.274C150.138 424.401 187 442 187 442C187 442 150.138 459.599 134.811 488.726C114.783 526.788 115.5 615 115.5 615C115.5 615 116.217 526.788 96.1885 488.726C80.8621 459.599 44 442 44 442C44 442 80.8621 424.401 96.1885 395.274C116.217 357.212 115.5 269 115.5 269Z" fill="url(#paint2_linear_361_163)"/>
<path d="M550.5 221C550.5 221 550.044 278.618 562.789 303.48C572.542 322.505 596 334 596 334C596 334 572.542 345.495 562.789 364.52C550.044 389.382 550.5 447 550.5 447C550.5 447 550.956 389.382 538.211 364.52C528.458 345.495 505 334 505 334C505 334 528.458 322.505 538.211 303.48C550.956 278.618 550.5 221 550.5 221Z" fill="url(#paint3_linear_361_163)"/>
</g>
<defs>
<linearGradient id="paint0_linear_361_163" x1="324" y1="-342" x2="324" y2="828" gradientUnits="userSpaceOnUse">
<stop stop-color="#DCB8D3"/>
<stop offset="1" stop-color="#898EBE"/>
</linearGradient>
<linearGradient id="paint1_linear_361_163" x1="81" y1="39" x2="81" y2="221" gradientUnits="userSpaceOnUse">
<stop stop-color="#FFDBA5"/>
<stop offset="1" stop-color="#FFC47C"/>
</linearGradient>
<linearGradient id="paint2_linear_361_163" x1="115.5" y1="269" x2="115.5" y2="615" gradientUnits="userSpaceOnUse">
<stop stop-color="#FFDBA5"/>
<stop offset="1" stop-color="#FFC47C"/>
</linearGradient>
<linearGradient id="paint3_linear_361_163" x1="550.5" y1="221" x2="550.5" y2="447" gradientUnits="userSpaceOnUse">
<stop stop-color="#FFDBA5"/>
<stop offset="1" stop-color="#FFC47C"/>
</linearGradient>
<clipPath id="clip0_361_163">
<rect width="640" height="640" fill="white"/>
</clipPath>
</defs>
</svg>
